<svg width="578" height="578" viewBox="0 0 578 578" fill="none" xmlns="http://www.w3.org/2000/svg">
<path fill-rule="evenodd" clip-rule="evenodd" d="M289 578C448.61 578 578 448.61 578 289C578 129.39 448.61 0 289 0C129.39 0 0 129.39 0 289C0 448.61 129.39 578 289 578ZM289 517.31C415.092 517.31 517.31 415.092 517.31 289C517.31 162.908 415.092 60.69 289 60.69C162.908 60.69 60.69 162.908 60.69 289C60.69 415.092 162.908 517.31 289 517.31Z" fill="0F1318"/>
<rect x="198" y="61" width="40" height="457" fill="0F1318"/>
<rect x="110" y="107" width="40" height="365" fill="0F1318"/>
<rect x="115.366" y="77.625" width="40" height="434.483" transform="rotate(-10.3893 115.366 77.625)" fill="0F1318"/>
<rect x="210" y="289" width="40" height="322" transform="rotate(-90 210 289)" fill="0F1318"/>
<rect x="210" y="472" width="40" height="257" transform="rotate(-90 210 472)" fill="0F1318"/>
<path fill-rule="evenodd" clip-rule="evenodd" d="M295.5 289C349.348 289 393 248.258 393 198C393 147.742 349.348 107 295.5 107C241.652 107 198 147.742 198 198C198 248.258 241.652 289 295.5 289ZM295.5 242C319.524 242 339 222.524 339 198.5C339 174.476 319.524 155 295.5 155C271.476 155 252 174.476 252 198.5C252 222.524 271.476 242 295.5 242Z" fill="0F1318"/>
<path fill-rule="evenodd" clip-rule="evenodd" d="M295.5 469C349.348 469 393 428.258 393 378C393 327.742 349.348 287 295.5 287C241.652 287 198 327.742 198 378C198 428.258 241.652 469 295.5 469ZM295.5 421C319.524 421 339 401.524 339 377.5C339 353.476 319.524 334 295.5 334C271.476 334 252 353.476 252 377.5C252 401.524 271.476 421 295.5 421Z" fill="0F1318"/>
</svg>
